<svg id="Layer_1" data-name="Layer 1" xmlns="http://www.w3.org/2000/svg" viewBox="0 0 1428.39 756.98">
    <defs>
        <style>.cls-1{font-size:110px;}.cls-1,.cls-2,.cls-3{fill:#fff;}.cls-1,.cls-2,.cls-5,.cls-6,.cls-7,.cls-8{font-family:Arial-BoldMT, Arial;font-weight:700;}.cls-2{font-size:72px;}.cls-4,.cls-5,.cls-6,.cls-7,.cls-8{isolation:isolate;}.cls-5,.cls-6{font-size:89.92px;letter-spacing:-0.02em;}.cls-5,.cls-7{fill:#f80a0a;}.cls-6,.cls-8{fill:none;stroke:#f50505;stroke-width:6px;}.cls-7,.cls-8{font-size:95.66px;}</style></defs><text class="cls-1" transform="matrix(0.76, -0.53, 0.57, 0.82, 294.49, 218.9)">L</text><text class="cls-1" transform="translate(352.73 178.9) rotate(-28.55) scale(0.93 1)">e</text><text class="cls-1" transform="translate(410.16 148.14) rotate(-22.24) scale(0.93 1)">a</text><text class="cls-1" transform="translate(471.15 124.1) rotate(-16.62) scale(0.93 1)">r</text><text class="cls-1" transform="translate(517.35 110.15) rotate(-10.68) scale(0.93 1)">n</text><text class="cls-1" transform="translate(587.66 98.12) rotate(-5.27) scale(0.93 1)"> </text><text class="cls-1" transform="matrix(0.93, 0.02, -0.02, 1, 624.07, 93.73)">w</text><text class="cls-1" transform="translate(712.03 96.96) rotate(7.03) scale(0.93 1)">i</text><text class="cls-1" transform="matrix(0.92, 0.18, -0.19, 0.98, 749.74, 101.85)">t</text><text class="cls-1" transform="translate(791.7 109.79) rotate(16.77) scale(0.93 1)">h</text><text class="cls-1" transform="translate(859.66 131.54) rotate(22.13) scale(0.93 1)"> </text><text class="cls-1" transform="matrix(0.83, 0.43, -0.46, 0.89, 894.42, 145.42)">J</text><text class="cls-1" transform="matrix(0.78, 0.51, -0.55, 0.84, 952.24, 175.58)">e</text><text class="cls-1" transform="translate(1006.49 211.66) rotate(39.64) scale(0.93 1)">n</text><text x="-184.5" y="-352.52"/><text class="cls-2" transform="translate(409.54 242.81)">07706 480 385</text><rect class="cls-3" x="432.97" y="474.5" width="84.26" height="105.91" transform="translate(-402.92 23.41) rotate(-35.66)"/><g class="cls-4"><text class="cls-5" transform="matrix(0.8, -0.57, 0.58, 0.81, 286.93, 218.49)">L</text><text class="cls-6" transform="matrix(0.8, -0.57, 0.58, 0.81, 286.93, 218.49)">L</text></g><rect class="cls-3" x="1061.11" y="432.13" width="106.29" height="84.11" transform="translate(-38.32 849.16) rotate(-59.98)"/><g class="cls-4"><text class="cls-7" transform="matrix(0.88, 0.51, -0.5, 0.87, 890.41, 138.47)">J</text><text class="cls-8" transform="matrix(0.88, 0.51, -0.5, 0.87, 890.41, 138.47)">J</text></g></svg>